<svg width="20" height="16" viewBox="0 0 20 16" fill="none" xmlns="http://www.w3.org/2000/svg">
<path d="M19.6211 5.28333C19.7734 5.15417 20 5.275 20 5.47917V14C20 15.1042 19.1602 16 18.125 16H1.875C0.839844 16 0 15.1042 0 14V5.48333C0 5.275 0.222656 5.15833 0.378906 5.2875C1.25391 6.0125 2.41406 6.93333 6.39844 10.0208C7.22266 10.6625 8.61328 12.0125 10 12.0042C11.3945 12.0167 12.8125 10.6375 13.6055 10.0208C17.5898 6.93333 18.7461 6.00833 19.6211 5.28333ZM10 10.6667C10.9062 10.6833 12.2109 9.45 12.8672 8.94167C18.0508 4.92917 18.4453 4.57917 19.6406 3.57917C19.8672 3.39167 20 3.1 20 2.79167V2C20 0.895833 19.1602 0 18.125 0H1.875C0.839844 0 0 0.895833 0 2V2.79167C0 3.1 0.132812 3.3875 0.359375 3.57917C1.55469 4.575 1.94922 4.92917 7.13281 8.94167C7.78906 9.45 9.09375 10.6833 10 10.6667Z" fill="white"/>
</svg>
