<svg width="310" height="207" viewBox="0 0 310 207" fill="none" xmlns="http://www.w3.org/2000/svg">
<g clip-path="url(#clip0_1380_43)">
<path d="M54.8561 160.1C54.4183 159.362 52.5242 160.152 52.176 159.482C51.829 158.815 53.5888 157.798 54.5942 155.474C54.7755 155.055 55.9181 152.414 55.0723 151.599C53.469 150.055 46.1324 156.429 43.5649 154.343C43.0014 153.885 42.6078 152.971 40.9024 151.488C40.224 150.897 39.8138 150.631 39.4167 150.73C38.8534 150.871 38.8088 151.625 38.2047 153.107C37.2987 155.33 36.7629 155.196 36.2351 156.97C35.8432 158.287 35.9327 159.052 35.4716 159.201C34.8192 159.413 34.2186 158.016 33.3917 158.141C32.5479 158.269 32.0377 159.895 31.8766 161.112C31.5742 163.397 32.4133 164.905 32.8784 166.49C33.3838 168.213 33.6837 170.833 32.5166 174.542L20.9644 207.091C23.5147 200.412 30.8993 182.103 34.0023 175.3C34.898 173.336 35.8871 171.344 37.9179 170.557C39.8732 169.8 42.5584 170.252 45.9818 169.428C46.3816 169.331 47.4911 169.049 47.6307 168.396C47.7462 167.857 47.0936 167.556 47.1939 167.051C47.3284 166.373 48.6117 166.364 50.1888 165.582C51.3008 165.031 51.9936 164.375 52.5894 163.811C52.769 163.641 55.439 161.083 54.8561 160.1H54.8561Z" fill="#F2F2F2"/>
<path d="M9.40622 177.235C8.91755 177.237 8.75902 178.395 8.32971 178.372C7.90193 178.35 7.91046 177.193 7.0601 176.029C6.90675 175.819 5.94036 174.496 5.29638 174.676C4.07575 175.017 5.08714 180.457 3.32262 181.116C2.93539 181.26 2.3733 181.19 1.15309 181.599C0.667664 181.761 0.418514 181.886 0.352614 182.109C0.259117 182.426 0.61628 182.666 1.16959 183.39C1.99938 184.476 1.77888 184.7 2.49716 185.471C3.03038 186.043 3.43195 186.22 3.3721 186.49C3.28744 186.871 2.42866 186.763 2.25145 187.205C2.07063 187.655 2.72157 188.375 3.27266 188.805C4.30683 189.613 5.28891 189.636 6.2012 189.865C7.19261 190.115 8.56513 190.723 10.0488 192.366L22.6906 207.428C20.1485 204.249 13.2932 195.342 10.8493 191.856C10.1438 190.849 9.45142 189.789 9.6515 188.566C9.84412 187.387 10.8407 186.2 11.4237 184.282C11.4918 184.058 11.6734 183.432 11.3934 183.175C11.1619 182.963 10.8258 183.196 10.6067 183.001C10.3129 182.739 10.6791 182.107 10.7503 181.107C10.8005 180.403 10.6786 179.873 10.5737 179.418C10.5421 179.281 10.0567 177.232 9.40623 177.235V177.235H9.40622Z" fill="#F2F2F2"/>
<path d="M19.1551 179.423L18.8607 176.795L18.9952 176.596C19.6177 175.675 19.935 174.775 19.9388 173.921C19.9394 173.785 19.933 173.649 19.9267 173.511C19.9013 172.963 19.8696 172.281 20.2249 171.487C20.4242 171.044 20.9838 170.019 21.8252 170.145C22.0517 170.177 22.223 170.281 22.3531 170.403C22.3722 170.373 22.3918 170.342 22.4128 170.309C22.6748 169.909 22.8823 169.738 23.0822 169.573C23.2357 169.446 23.3944 169.315 23.6431 169.006C23.7522 168.87 23.8373 168.751 23.909 168.65C24.1266 168.347 24.4109 167.985 24.9121 167.992C25.4477 168.017 25.7281 168.46 25.914 168.753C26.2459 169.276 26.3963 169.653 26.4959 169.903C26.5321 169.994 26.5733 170.097 26.5943 170.129C26.7668 170.383 28.1698 170.145 28.6983 170.059C29.8855 169.861 30.9128 169.69 31.336 170.439C31.6393 170.974 31.4141 171.682 30.6463 172.6C30.4071 172.885 30.1526 173.102 29.9268 173.272C30.1139 173.384 30.2814 173.555 30.3494 173.824C30.5093 174.461 29.9617 175.1 28.7224 175.724C28.4147 175.88 28.0004 176.088 27.4198 176.189C27.1463 176.236 26.9001 176.247 26.6894 176.253C26.685 176.375 26.6564 176.507 26.5822 176.643C26.3646 177.043 25.9115 177.233 25.2288 177.187C24.4775 177.148 23.8589 177.005 23.3132 176.879C22.8366 176.77 22.4261 176.677 22.1038 176.699C21.5061 176.747 21.0454 177.225 20.5048 177.846L19.1552 179.423H19.1551H19.1551Z" fill="#F2F2F2"/>
<path d="M20.5209 163.775L18.0534 164.727L17.8265 164.647C16.7774 164.279 15.8266 164.2 14.9995 164.413C14.868 164.447 14.7383 164.487 14.6061 164.528C14.0823 164.692 13.4311 164.896 12.5725 164.753C12.0936 164.673 10.9598 164.392 10.8691 163.546C10.8424 163.319 10.8996 163.126 10.9844 162.97C10.9501 162.959 10.9157 162.948 10.8784 162.936C10.4253 162.784 10.207 162.627 9.99667 162.475C9.83496 162.359 9.66829 162.238 9.30568 162.076C9.14665 162.005 9.0097 161.953 8.89454 161.909C8.54595 161.776 8.124 161.592 8.003 161.106C7.89171 160.582 8.24899 160.198 8.48539 159.944C8.90696 159.49 9.23339 159.249 9.44995 159.089C9.52915 159.031 9.61812 158.965 9.64351 158.937C9.84524 158.705 9.25984 157.409 9.0423 156.919C8.54967 155.821 8.12339 154.871 8.74029 154.272C9.18138 153.842 9.92348 153.881 11.0057 154.391C11.3426 154.55 11.6171 154.741 11.8389 154.916C11.8994 154.707 12.0226 154.501 12.2657 154.367C12.8413 154.051 13.5977 154.419 14.5159 155.459C14.745 155.717 15.0514 156.065 15.2957 156.601C15.4104 156.854 15.4839 157.089 15.5435 157.291C15.6625 157.265 15.7974 157.259 15.9476 157.296C16.3894 157.405 16.6885 157.795 16.8175 158.467C16.97 159.204 16.9882 159.839 17.0051 160.398C17.0204 160.887 17.0349 161.308 17.1375 161.614C17.3358 162.18 17.9154 162.504 18.6528 162.87L20.521 163.775L20.5209 163.775V163.775Z" fill="#F2F2F2"/>
<path d="M19.1551 156.032L18.8607 153.404L18.9952 153.205C19.6177 152.284 19.935 151.384 19.9388 150.53C19.9394 150.394 19.933 150.258 19.9267 150.12C19.9013 149.572 19.8696 148.89 20.2249 148.096C20.4242 147.653 20.9838 146.628 21.8252 146.754C22.0517 146.786 22.223 146.89 22.3531 147.012C22.3722 146.982 22.3918 146.951 22.4128 146.918C22.6748 146.518 22.8823 146.347 23.0822 146.182C23.2357 146.055 23.3944 145.924 23.6431 145.615C23.7522 145.479 23.8373 145.36 23.909 145.259C24.1266 144.956 24.4109 144.595 24.9121 144.601C25.4477 144.626 25.7281 145.069 25.914 145.362C26.2459 145.885 26.3963 146.262 26.4959 146.512C26.5321 146.603 26.5733 146.706 26.5943 146.738C26.7668 146.992 28.1698 146.754 28.6983 146.668C29.8855 146.47 30.9128 146.299 31.336 147.048C31.6393 147.583 31.4141 148.291 30.6463 149.209C30.4071 149.494 30.1526 149.711 29.9268 149.881C30.1139 149.993 30.2814 150.164 30.3494 150.433C30.5093 151.07 29.9617 151.709 28.7224 152.333C28.4147 152.489 28.0004 152.697 27.4198 152.798C27.1463 152.845 26.9001 152.856 26.6894 152.862C26.685 152.984 26.6564 153.116 26.5822 153.252C26.3646 153.652 25.9115 153.842 25.2288 153.796C24.4775 153.757 23.8589 153.614 23.3132 153.488C22.8366 153.379 22.4261 153.286 22.1038 153.308C21.5061 153.356 21.0454 153.834 20.5048 154.455L19.1552 156.032H19.1551H19.1551Z" fill="#F2F2F2"/>
<path d="M21.8442 207.048L21.2934 206.703L21.1602 206.067L21.2934 206.703L20.6513 206.776C20.6411 206.717 20.6062 206.58 20.5536 206.365C20.2662 205.19 19.3899 201.614 18.6589 195.982C18.1487 192.05 17.86 188.008 17.8004 183.967C17.7408 179.918 17.9324 176.854 18.0859 174.39C18.202 172.532 18.3429 170.763 18.4812 169.04C18.8493 164.436 19.1963 160.087 18.9381 155.272C18.881 154.197 18.761 151.96 17.4539 149.579C16.6957 148.199 15.6513 146.973 14.3492 145.937L15.1589 144.919C16.5961 146.064 17.7515 147.422 18.5936 148.955C20.0428 151.595 20.1735 154.032 20.2363 155.204C20.499 160.103 20.1481 164.494 19.7763 169.143C19.6392 170.86 19.4984 172.621 19.3829 174.472C19.2306 176.912 19.0409 179.95 19.0999 183.946C19.1583 187.94 19.4438 191.932 19.947 195.814C20.6691 201.375 21.5327 204.898 21.8163 206.055C21.9673 206.673 21.999 206.803 21.8442 207.048V207.048H21.8442Z" fill="#F2F2F2"/>
<path d="M11.9659 148.002C11.9126 148.002 11.8587 148.001 11.8041 147.997C10.6975 147.937 9.67278 147.275 8.7578 146.029C8.32887 145.442 8.10933 144.773 7.6715 143.44C7.60361 143.234 7.27365 142.191 7.07314 140.756C6.94179 139.818 6.95829 139.426 7.14421 139.079C7.35043 138.693 7.68419 138.424 8.05982 138.243C8.04333 138.119 8.05664 137.99 8.11059 137.86C8.33203 137.318 8.92087 137.389 9.2394 137.423C9.40057 137.443 9.60171 137.47 9.81872 137.459C10.1601 137.442 10.3435 137.341 10.6214 137.188C10.8873 137.042 11.2178 136.861 11.7083 136.761C12.6753 136.559 13.4856 136.833 13.7527 136.923C15.1582 137.391 15.8511 138.484 16.6531 139.749C16.813 140.003 17.3619 140.927 17.7242 142.193C17.9856 143.107 17.9488 143.513 17.8701 143.815C17.7102 144.436 17.3327 144.791 16.3739 145.575C15.3727 146.397 14.8701 146.808 14.4387 147.058C13.4342 147.638 12.8035 148.002 11.9659 148.002V148.002H11.9659Z" fill="#F2F2F2"/>
<path d="M302.345 206.457C302.345 206.698 302.15 206.893 301.91 206.893H0V206.021H301.91C302.15 206.021 302.345 206.216 302.345 206.457V206.457Z" fill="#E6E6E6"/>
<path d="M215.188 68.7597C215.188 68.7597 198.937 70.7142 201.678 57.865C204.419 45.0158 219.962 21.2825 219.962 21.2825L228.782 26.2289L218.656 50.1648L223.015 53.6038L215.188 68.7597H215.188Z" fill="#A0616A"/>
<path d="M268.444 53.1167L266.154 71.9511L208.771 71.6701L220.296 51.6404L268.444 53.1167Z" fill="#DA5E48"/>
<path d="M234.343 22.2832C237.855 17.3788 238.136 11.5663 234.972 9.30072C231.808 7.0351 226.396 9.17428 222.885 14.0787C219.373 18.9831 219.091 24.7956 222.255 27.0613C225.419 29.3269 230.831 27.1877 234.343 22.2832Z" fill="#A0616A"/>
<path d="M262.927 124.923V206.662H266.45V124.923H262.927Z" fill="#3F3D56"/>
<path d="M246.015 124.923V206.662H249.539V124.923H246.015Z" fill="#3F3D56"/>
<path d="M151.241 73.4844V206.662H154.764V73.4844H151.241Z" fill="#E6E6E6"/>
<path d="M207.964 124.923V206.662H211.488V124.923H207.964Z" fill="#3F3D56"/>
<path d="M194.482 124.923V206.662H198.005V124.923H194.482Z" fill="#3F3D56"/>
<path d="M259.756 123.162H191.719L178.667 141.675L246.368 145.71L259.756 123.162Z" fill="#3F3D56"/>
<path d="M135.173 59.8228L135.482 46.3972L94.4192 49.5557L94.2092 58.6531L135.173 59.8228Z" fill="#A0616A"/>
<path d="M107.382 47.9517L105.418 52.6767L102.597 52.7667C102.597 52.7667 105.9 53.778 106.817 59.779L104.107 60.5914C104.107 60.5914 101.505 63.0196 96.6394 62.784L83.5948 61.6928L83.5446 57.1453L92.5604 56.1034C92.5604 56.1034 94.5693 54.7818 84.6246 49.3481C84.6246 49.3481 81.3302 47.3336 84.2931 37.3856C84.7003 36.0184 85.9304 35.0363 87.3567 35.0054C88.1438 34.9884 88.8814 35.2712 89.1758 36.2489C89.9253 38.7376 89.167 41.2186 91.2266 42.7721C93.2863 44.3256 107.382 47.9517 107.382 47.9517L107.382 47.9517Z" fill="#2F2E41"/>
<path d="M254.664 111.15C254.664 111.15 240.496 135.247 208.436 130.904C200.807 129.871 194.095 125.335 190.271 118.653C182.879 105.738 171.656 83.1232 175.295 70.318L121.072 59.9692L116.8 46.8008L175.482 39.1779C180.673 38.5037 185.758 41.0278 188.359 45.5701L216.944 95.4917L225.466 96.4222L254.664 111.15V111.15Z" fill="#2F2E41"/>
<path d="M136.244 65.3187L135.471 51.9118L94.7958 58.3637L95.3183 67.4485L136.244 65.3187Z" fill="#A0616A"/>
<path d="M107.587 55.7219L106.01 60.5896L103.206 60.9063C103.206 60.9063 106.579 61.6486 107.976 67.5564L105.34 68.5841C105.34 68.5841 102.941 71.2138 98.073 71.3705L84.9829 71.3323L84.5671 66.8035L93.4698 65.0397C93.4698 65.0397 95.3658 63.5607 85.0162 58.9447C85.0162 58.9447 81.5704 57.2018 83.7233 47.0477C84.0192 45.6521 85.1663 44.5743 86.5855 44.4288C87.3687 44.3485 88.1267 44.571 88.4988 45.5218C89.4461 47.9421 88.8898 50.4761 91.0678 51.8589C93.2458 53.2416 107.587 55.7219 107.587 55.7219H107.587Z" fill="#2F2E41"/>
<path d="M259.476 106.866C259.476 106.866 247.293 132.025 214.988 130.276C207.3 129.859 200.245 125.878 195.895 119.525C187.489 107.247 174.483 85.6085 177.079 72.552L122.2 66.5992L116.882 53.8172L174.761 41.4978C179.881 40.4082 185.152 42.5151 188.11 46.8334L220.619 94.2934L229.188 94.5353L259.476 106.866V106.866Z" fill="#2F2E41"/>
<path d="M222.338 0.62558L219.519 2.73951L234.317 23.1742L237.135 22.4696L222.338 0.62558Z" fill="#3F3D56"/>
<path d="M260.813 46.0033L277.02 45.2986L284.066 77.0076C284.066 77.0076 269.269 132.675 251.652 130.561C251.652 130.561 240.73 122.457 240.73 119.639C240.73 116.82 225.933 109.774 225.933 109.774L222.41 97.7947L232.979 81.5878C232.979 81.5878 237.207 68.9042 251.3 61.8578L260.813 46.0033V46.0033Z" fill="#DA5E48"/>
<path d="M168.152 70.6658H24.0524V74.1891H94.5168V206.662H98.04V74.1891H168.152V70.6658Z" fill="#E6E6E6"/>
<path d="M269.269 43.1847C279.776 43.1847 288.294 34.6667 288.294 24.1593C288.294 13.6519 279.776 5.13391 269.269 5.13391C258.761 5.13391 250.243 13.6519 250.243 24.1593C250.243 34.6667 258.761 43.1847 269.269 43.1847Z" fill="#A0616A"/>
<path d="M202.932 48.4695L189.644 53.7544L215.716 88.282L224.876 81.2355L202.932 48.4695Z" fill="#E6E6E6"/>
<path d="M254.823 114.706C254.823 114.706 249.891 130.314 239.321 122.51C228.751 114.706 213.557 90.7482 213.557 90.7482L221.705 84.7587L239.321 103.867L244.254 101.318L254.823 114.706Z" fill="#A0616A"/>
<path d="M262.574 59.7438L278.781 69.6089L254.823 121.753L239.321 100.613L262.574 59.7438Z" fill="#DA5E48"/>
<path d="M219.767 91.0465C223.137 89.1007 223.425 83.2885 220.409 78.0646C217.393 72.8407 212.215 70.1833 208.845 72.1291C205.475 74.0749 205.188 79.8871 208.204 85.111C211.22 90.3349 216.397 92.9924 219.767 91.0465Z" fill="#A0616A"/>
<path d="M271.349 81.7626C276.232 65.7552 281.472 60.6894 286.981 63.861C291.174 66.2751 292.436 71.7701 289.979 75.9381C283.715 86.5621 270.808 110.904 273.496 127.037C273.496 127.037 277.724 149.586 243.901 149.586C210.078 149.586 177.665 141.835 177.665 141.835L195.281 139.016L235.342 141.878C244.495 142.532 252.209 134.7 250.986 125.606C250.946 125.305 250.898 125.002 250.842 124.695C248.834 113.649 271.349 81.7626 271.349 81.7626V81.7626Z" fill="#3F3D56"/>
<path d="M262.138 16.2725C260.584 20.6242 263.999 25.1429 268.609 24.8355L268.719 24.8282C271.819 28.7025 271.904 34.1829 268.927 38.1521C268.683 43.2679 269.484 48.3798 271.282 53.1754L276.335 66.6491L284.114 63.0192L287.805 72.8719L309.523 61.6837L296.361 32.0677L292.344 16.0002C289.486 4.56888 277.825 -2.31181 266.437 0.713178L257.7 3.034C250.797 4.86752 246.824 12.0945 248.975 18.905V18.905L262.138 16.2725" fill="#2F2E41"/>
</g>
<defs>
<clipPath id="clip0_1380_43">
<rect width="309.523" height="207.428" fill="white"/>
</clipPath>
</defs>
</svg>
