<svg width="16" height="20" viewBox="0 0 16 20" fill="none" xmlns="http://www.w3.org/2000/svg">
<path d="M13.6 0H2.4C1.075 0 0 0.839844 0 1.875V18.125C0 19.1602 1.075 20 2.4 20H13.6C14.925 20 16 19.1602 16 18.125V1.875C16 0.839844 14.925 0 13.6 0ZM8 18.75C7.115 18.75 6.4 18.1914 6.4 17.5C6.4 16.8086 7.115 16.25 8 16.25C8.885 16.25 9.6 16.8086 9.6 17.5C9.6 18.1914 8.885 18.75 8 18.75ZM13.6 14.5312C13.6 14.7891 13.33 15 13 15H3C2.67 15 2.4 14.7891 2.4 14.5312V2.34375C2.4 2.08594 2.67 1.875 3 1.875H13C13.33 1.875 13.6 2.08594 13.6 2.34375V14.5312Z" fill="white"/>
</svg>
